<?xml version="1.0" standalone="no"?>
<!DOCTYPE svg PUBLIC "-//W3C//DTD SVG 20010904//EN"
 "http://www.w3.org/TR/2001/REC-SVG-20010904/DTD/svg10.dtd">
<svg version="1.0" xmlns="http://www.w3.org/2000/svg"
 width="2816.000000pt" height="1536.000000pt" viewBox="0 0 2816.000000 1536.000000"
 preserveAspectRatio="xMidYMid meet">

<g transform="translate(0.000000,1536.000000) scale(0.100000,-0.100000)"
fill="#000000" stroke="none">
<path d="M13910 11711 c-360 -236 -624 -409 -807 -529 l-193 -127 0 -441 0
-441 342 -329 c188 -181 445 -428 571 -549 126 -121 232 -221 237 -223 7 -3
270 288 510 563 57 66 149 172 204 235 55 63 126 143 158 178 32 34 58 67 58
71 0 9 -235 91 -261 91 -8 0 -27 -25 -42 -56 -33 -66 -128 -212 -160 -244 -12
-12 -105 -74 -207 -137 -102 -62 -197 -122 -211 -132 l-25 -19 -87 57 c-47 31
-134 87 -193 124 -90 58 -105 70 -93 82 15 13 183 119 554 347 121 74 290 179
375 233 132 84 393 246 562 351 l47 29 1 101 c0 85 -3 104 -17 115 -16 12 -17
12 -7 -1 7 -8 12 -56 13 -106 2 -79 -1 -92 -18 -108 -15 -13 -24 -16 -33 -9
-7 6 -21 9 -30 8 -11 -2 -18 3 -18 11 0 9 -4 13 -9 9 -6 -3 -13 0 -18 7 -7 12
-24 18 -65 21 -9 1 -16 6 -15 12 1 5 -4 9 -10 8 -7 -2 -13 5 -13 15 0 9 -4 13
-8 7 -13 -18 -32 -15 -32 4 0 10 -7 21 -15 25 -17 6 -20 -5 -4 -21 8 -8 8 -13
0 -18 -7 -4 -10 -1 -9 7 2 7 -3 12 -9 11 -7 -2 -13 3 -13 10 0 7 -8 13 -19 14
-17 1 -141 80 -141 90 0 3 15 -5 33 -17 17 -11 42 -26 55 -32 12 -6 22 -15 22
-20 0 -5 8 -4 18 1 13 7 22 7 29 0 6 -6 10 -5 10 5 0 8 -4 13 -8 10 -4 -2 -7
11 -6 30 1 19 5 32 10 29 4 -2 7 1 7 7 0 6 4 9 8 6 15 -9 9 29 -6 40 -13 9
-13 12 2 17 10 4 15 3 11 -3 -3 -6 1 -7 10 -4 25 10 -2 33 -31 28 -15 -3 -23
-1 -20 5 3 5 -3 7 -14 4 -11 -3 -18 -9 -15 -13 3 -5 1 -11 -4 -14 -5 -3 -12 1
-15 10 -6 15 -8 15 -31 0 -35 -23 -45 -19 -15 5 l25 20 -25 -7 c-14 -4 -31 -9
-37 -11 -7 -3 -17 5 -21 18 -9 23 -9 23 -14 1 -4 -12 -1 -20 4 -19 6 1 13 -4
16 -12 3 -8 0 -11 -7 -7 -6 4 -11 5 -11 1 0 -3 10 -10 23 -16 l22 -10 -22 5
c-24 4 -32 -9 -10 -17 9 -4 9 -6 0 -6 -7 -1 -10 -8 -6 -18 8 -20 13 -22 -129
70 -107 68 -136 92 -78 62 28 -14 34 -13 31 8 -2 11 37 8 44 -3 11 -18 26 0
15 20 -8 14 -5 19 11 23 12 3 18 10 15 15 -4 6 3 8 16 4 16 -4 19 -2 13 8 -6
10 -4 12 11 6 15 -6 14 -3 -5 18 -22 24 -21 31 3 27 5 -1 16 1 24 4 11 4 12 8
2 20 -7 8 -9 15 -4 15 5 1 -5 7 -22 14 -17 8 -43 12 -57 11 -15 -2 -27 -1 -27
2 0 10 27 31 45 34 13 3 -78 68 -273 197 -160 105 -295 192 -299 192 -4 0 -82
-49 -173 -109z m195 71 c-3 -3 -11 0 -18 7 -9 10 -8 11 6 5 10 -3 15 -9 12
-12z m-29 -24 c-9 -5 -23 -5 -32 0 -12 6 -7 9 16 9 23 0 28 -3 16 -9z m66 0
c-17 -17 -15 -28 4 -28 8 0 12 5 9 10 -9 14 17 12 38 -4 24 -18 21 -29 -5 -21
-20 5 -21 4 -5 -5 9 -6 22 -8 28 -5 6 4 30 -4 55 -16 44 -24 56 -39 30 -39 -8
0 -16 -5 -18 -12 -3 -7 -12 -9 -22 -5 -11 5 -16 13 -12 23 3 8 2 12 -4 9 -6
-3 -10 4 -10 17 0 18 -2 20 -10 8 -5 -8 -10 -11 -10 -5 0 5 -5 4 -11 -2 -9 -9
-17 -6 -31 13 -11 13 -24 22 -29 19 -5 -4 -10 -3 -10 2 -7 42 -5 53 9 53 13 0
13 -3 4 -12z m78 -113 c0 -8 -2 -15 -4 -15 -2 0 -6 7 -10 15 -3 8 -1 15 4 15
6 0 10 -7 10 -15z m118 -11 c15 -15 14 -16 -6 -10 -13 5 -22 3 -22 -3 0 -6 -5
-11 -10 -11 -7 0 -7 6 0 20 13 24 17 25 38 4z m36 -30 c3 -8 2 -12 -4 -9 -6 3
-10 10 -10 16 0 14 7 11 14 -7z m46 -18 c0 -3 -4 -8 -10 -11 -5 -3 -10 -1 -10
4 0 6 5 11 10 11 6 0 10 -2 10 -4z m86 -67 c18 1 44 -11 44 -20 0 -6 4 -8 8
-5 4 2 22 -8 39 -23 26 -23 29 -29 18 -44 -7 -9 -17 -17 -24 -17 -6 0 -11 -5
-11 -11 0 -5 -4 -7 -10 -4 -5 3 -10 0 -10 -7 0 -9 -3 -9 -10 2 -8 13 -13 13
-31 2 -19 -12 -21 -12 -16 2 5 13 3 15 -12 7 -10 -6 -21 -7 -25 -4 -3 3 -6 -5
-6 -18 -1 -24 -1 -23 -16 5 -12 21 -13 31 -4 40 8 8 10 7 5 -6 -5 -13 -2 -16
15 -15 15 1 20 7 18 22 -2 11 -10 20 -19 19 -9 -1 -22 8 -29 20 -10 17 -10 19
1 9 15 -15 30 -17 27 -4 -2 5 1 9 6 9 15 0 31 35 18 40 -7 2 -9 8 -6 14 4 7 9
6 14 -2 4 -6 11 -11 16 -11z m-55 -16 c-12 -20 -14 -14 -5 12 4 9 9 14 11 11
3 -2 0 -13 -6 -23z m-76 -126 c-5 -18 -2 -23 14 -23 12 0 21 5 21 10 0 5 3 6
7 3 3 -4 -2 -16 -12 -27 -16 -18 -17 -24 -7 -41 10 -15 -2 -11 -45 16 -65 41
-107 77 -63 54 14 -7 31 -14 39 -15 8 -2 18 -9 23 -16 6 -9 8 -5 6 12 -2 14 1
30 7 37 14 18 16 16 10 -10z m290 3 c3 -5 1 -10 -4 -10 -6 0 -11 5 -11 10 0 6
2 10 4 10 3 0 8 -4 11 -10z m-396 -326 c100 -64 181 -120 181 -125 0 -7 -196
-134 -420 -271 -150 -92 -426 -264 -487 -304 -29 -19 -55 -34 -58 -34 -3 0 -5
103 -5 229 l0 229 298 196 c163 107 300 196 304 196 3 0 88 -52 187 -116z
m661 36 c0 -5 -4 -10 -9 -10 -6 0 -13 5 -16 10 -3 6 1 10 9 10 9 0 16 -4 16
-10z m-50 -179 c0 -5 -30 -30 -67 -54 -73 -48 -203 -122 -203 -114 0 6 258
177 267 177 2 0 3 -4 3 -9z"/>
<path d="M17079 11717 c-42 -51 -127 -151 -190 -223 -63 -71 -265 -303 -449
-514 -184 -211 -391 -448 -460 -525 -69 -77 -237 -268 -375 -425 -137 -156
-309 -349 -381 -429 -72 -81 -187 -209 -255 -287 -68 -77 -239 -268 -379 -423
-140 -156 -304 -338 -363 -404 -59 -67 -116 -130 -127 -141 -18 -18 -26 -11
-372 325 -194 189 -496 486 -671 659 -175 173 -322 316 -327 318 -4 2 -11 -16
-15 -40 -15 -86 -30 -100 -167 -154 l-58 -23 0 24 c0 12 -7 28 -15 35 -8 7
-15 9 -15 5 0 -4 -7 -2 -15 5 -8 6 -18 9 -23 7 -4 -3 -14 -2 -22 3 -12 7 -12
12 -2 22 9 9 12 9 12 -1 0 -7 5 -9 11 -6 14 9 -21 34 -38 28 -7 -3 -13 0 -13
7 0 7 -8 10 -19 7 -12 -3 -22 1 -25 10 -5 12 -9 13 -20 4 -18 -15 -30 1 -21
29 6 19 4 19 -22 8 -15 -7 -63 -32 -106 -55 -42 -24 -79 -43 -81 -43 -2 0 -72
38 -156 85 -84 47 -162 87 -172 91 -14 4 -39 -14 -95 -68 -166 -158 -353 -368
-353 -396 0 -7 13 -33 30 -56 16 -24 63 -96 104 -160 l74 -116 -41 -93 c-22
-50 -55 -132 -73 -182 -17 -49 -38 -93 -45 -96 -8 -4 -90 -27 -184 -52 l-170
-44 -12 -89 c-19 -148 -12 -528 10 -550 3 -3 87 -29 187 -59 99 -29 182 -54
184 -56 2 -2 18 -47 35 -99 17 -52 49 -135 70 -185 l38 -90 -99 -148 c-55 -81
-102 -155 -105 -162 -8 -22 158 -223 300 -362 68 -68 127 -123 131 -123 10 0
118 55 239 122 l108 60 67 -35 c37 -19 119 -58 182 -87 63 -28 119 -55 123
-59 4 -4 23 -88 41 -185 19 -98 36 -179 37 -181 2 -2 60 -10 127 -19 124 -16
418 -22 505 -10 l45 6 54 191 55 190 94 32 c126 42 251 95 247 105 -2 5 -115
92 -253 194 -165 124 -254 184 -265 180 -8 -3 -76 -8 -150 -11 -159 -6 -274
13 -413 69 -171 69 -358 211 -469 357 -70 92 -153 266 -184 386 -51 196 -42
467 22 661 89 273 319 536 569 649 98 44 154 65 178 65 16 0 212 -191 709
-690 379 -379 691 -690 695 -689 7 0 382 422 694 779 46 52 187 212 314 355
245 277 430 488 1018 1159 203 232 375 422 383 424 16 4 89 -58 287 -241 64
-60 117 -106 117 -103 0 10 58 385 95 611 110 680 161 1015 154 1015 -2 -1
-38 -42 -80 -93z m-4606 -2241 c4 -10 1 -13 -8 -9 -8 3 -12 9 -9 14 7 12 11
11 17 -5z m-415 -320 c-80 -71 -137 -133 -168 -182 -8 -13 -18 -24 -23 -24
-10 0 -3 11 41 70 57 75 87 106 153 159 93 75 91 62 -3 -23z m-217 -243 c-12
-20 -14 -14 -5 12 4 9 9 14 11 11 3 -2 0 -13 -6 -23z m-21 -44 c-6 -10 -13
-19 -16 -19 -2 0 0 8 5 19 6 10 7 22 3 26 -4 5 -1 5 6 1 9 -5 9 -12 2 -27z
m-20 -33 c0 -3 -4 -8 -10 -11 -5 -3 -10 -1 -10 4 0 6 5 11 10 11 6 0 10 -2 10
-4z m-23 -38 c-55 -125 -112 -277 -125 -330 -19 -82 -39 -77 -22 6 31 149 110
336 142 336 6 0 8 -6 5 -12z m-147 -432 c0 -3 -4 -8 -10 -11 -5 -3 -10 -1 -10
4 0 6 5 11 10 11 6 0 10 -2 10 -4z"/>
<path d="M14660 11420 c-12 -8 -11 -10 7 -10 13 0 31 -7 41 -16 21 -17 152
-91 137 -76 -11 11 -163 112 -167 112 -2 0 -10 -5 -18 -10z"/>
<path d="M14910 11262 c0 -5 7 -9 15 -9 8 0 12 4 9 9 -3 4 -9 8 -15 8 -5 0 -9
-4 -9 -8z"/>
<path d="M14658 11235 c-5 -25 -4 -25 10 -11 12 11 13 19 5 27 -7 7 -12 3 -15
-16z"/>
<path d="M14950 11245 c0 -13 50 -50 118 -87 55 -31 35 -11 -43 42 -41 28 -75
48 -75 45z"/>
<path d="M14585 11191 c-3 -5 -2 -12 3 -15 5 -3 9 1 9 9 0 17 -3 19 -12 6z"/>
<path d="M14637 11169 c-3 -11 0 -16 8 -12 19 7 26 30 10 30 -8 0 -16 -8 -18
-18z"/>
<path d="M14960 11161 c0 -5 11 -11 23 -13 14 -3 24 0 24 7 0 6 -11 12 -24 13
-12 1 -23 -2 -23 -7z"/>
<path d="M14715 11100 c3 -5 11 -10 16 -10 6 0 7 5 4 10 -3 6 -11 10 -16 10
-6 0 -7 -4 -4 -10z"/>
<path d="M12737 10095 c20 -19 40 -35 45 -35 4 0 8 -7 8 -15 0 -8 5 -15 12
-15 7 0 28 -15 48 -32 19 -18 -1 4 -45 50 -44 45 -85 82 -92 82 -7 0 4 -16 24
-35z"/>
<path d="M12658 10113 c6 -2 18 -2 25 0 6 3 1 5 -13 5 -14 0 -19 -2 -12 -5z"/>
<path d="M12578 10093 c7 -3 16 -2 19 1 4 3 -2 6 -13 5 -11 0 -14 -3 -6 -6z"/>
<path d="M12525 10078 c-10 -29 -46 -301 -42 -316 3 -12 5 -10 6 6 0 12 5 22
10 22 4 0 11 37 16 83 4 45 8 93 9 107 2 14 4 42 4 62 2 26 7 38 20 41 16 4
16 5 -1 6 -10 0 -20 -5 -22 -11z"/>
<path d="M12545 9950 c-16 -7 -17 -9 -3 -9 9 -1 20 4 23 9 7 11 7 11 -20 0z"/>
<path d="M13050 9805 c0 -8 210 -215 218 -215 3 0 16 -10 29 -22 13 -12 23
-19 23 -16 0 3 -61 62 -135 132 -74 71 -135 125 -135 121z"/>
<path d="M12370 9670 c-8 -5 -10 -10 -5 -10 6 0 17 5 25 10 8 5 11 10 5 10 -5
0 -17 -5 -25 -10z"/>
<path d="M12310 9640 c-9 -6 -10 -10 -3 -10 6 0 15 5 18 10 8 12 4 12 -15 0z"/>
<path d="M13530 9346 c82 -88 145 -150 210 -206 105 -90 61 -43 -102 111 -84
79 -133 121 -108 95z"/>
<path d="M14299 9083 c-13 -16 -12 -17 4 -4 9 7 17 15 17 17 0 8 -8 3 -21 -13z"/>
<path d="M14125 8889 c-4 -6 -5 -12 -2 -15 2 -3 7 2 10 11 7 17 1 20 -8 4z"/>
<path d="M14030 8855 c13 -14 26 -25 28 -25 3 0 -5 11 -18 25 -13 14 -26 25
-28 25 -3 0 5 -11 18 -25z"/>
<path d="M12706 8770 c-60 -50 -117 -95 -127 -101 -18 -9 -19 -31 -19 -498 l0
-489 68 -48 c37 -26 117 -86 177 -134 123 -96 432 -331 938 -712 286 -215 343
-255 357 -245 264 196 651 499 643 506 -3 3 -8 0 -10 -6 -3 -7 -11 -13 -19
-13 -8 0 -14 -3 -14 -8 0 -4 -10 -13 -21 -21 -17 -10 -23 -10 -29 -1 -5 9 -9
9 -14 1 -4 -6 -2 -11 5 -11 7 0 10 -2 7 -5 -3 -3 -13 -3 -22 1 -14 5 -14 9 -4
22 11 13 10 14 -10 8 -17 -6 -22 -3 -22 11 0 15 -2 16 -10 3 -6 -9 -10 -10
-10 -3 0 6 -8 12 -17 12 -51 2 -54 3 -38 21 21 23 19 28 -11 22 -16 -3 -29 1
-34 8 -7 11 -12 11 -23 2 -16 -14 -31 -4 -17 12 6 8 3 12 -11 13 -10 1 -19 -2
-19 -8 0 -5 -4 -9 -10 -9 -5 0 -10 11 -10 24 0 14 -4 27 -9 30 -5 4 -7 -4 -4
-16 4 -22 4 -22 -11 -4 -17 22 -8 27 -177 -105 -84 -66 -87 -67 -110 -52 -38
25 -126 92 -224 169 -49 38 -162 125 -250 191 -88 67 -274 208 -413 315 l-253
193 0 310 c1 171 1 313 1 316 0 3 31 30 70 60 38 30 69 59 70 64 0 6 -57 68
-128 138 l-127 127 -109 -90z"/>
<path d="M15269 7089 c0 -41 0 -143 0 -227 0 -149 0 -152 -19 -142 -11 6 -20
16 -20 22 0 6 -9 3 -20 -7 -19 -17 -19 -17 -15 6 6 32 -12 51 -36 38 -11 -5
-19 -6 -19 -1 0 5 -13 12 -30 16 -16 3 -30 12 -30 19 0 14 -27 16 -48 3 -6 -4
-12 -2 -12 3 0 6 -8 11 -17 11 -16 0 -16 -2 -3 -11 12 -8 11 -9 -5 -5 -59 15
-80 17 -65 7 19 -13 1 -14 -20 -1 -11 7 -16 37 -21 117 -3 59 -6 -102 -7 -359
l-2 -468 206 0 206 0 -7 523 c-4 287 -9 524 -11 526 -2 2 -4 -29 -5 -70z m-42
-366 c-4 -3 -2 -12 5 -20 8 -10 8 -17 0 -25 -7 -7 -12 -10 -13 -7 0 2 -2 13
-4 23 -4 20 2 36 12 36 4 0 3 -3 0 -7z m34 -46 c-10 -9 -11 -8 -5 6 3 10 9 15
12 12 3 -3 0 -11 -7 -18z"/>
<path d="M14543 7095 c4 -4 0 -16 -8 -25 -14 -16 -14 -18 1 -24 12 -4 15 -2
11 9 -4 8 -2 17 3 20 4 3 11 -1 13 -7 4 -8 6 -9 6 -2 1 6 -7 18 -16 25 -10 7
-15 9 -10 4z"/>
<path d="M15100 6810 c0 -5 7 -10 16 -10 8 0 12 5 9 10 -3 6 -10 10 -16 10 -5
0 -9 -4 -9 -10z"/>
<path d="M20200 4785 l0 -395 285 0 285 0 0 70 0 70 -197 2 -198 3 -3 88 -3
87 171 0 170 0 0 75 0 75 -170 0 -170 0 0 85 0 85 195 0 195 0 0 75 0 75 -280
0 -280 0 0 -395z"/>
<path d="M20890 4786 l0 -396 90 0 90 0 0 110 0 110 73 0 72 0 70 -110 70
-109 98 -1 c53 0 97 2 97 4 0 3 -36 60 -79 127 l-79 122 48 38 c68 54 95 114
95 209 -1 93 -27 152 -91 209 -75 66 -110 74 -346 79 l-208 4 0 -396z m371
234 c19 -5 48 -24 65 -41 25 -26 29 -38 29 -84 0 -101 -50 -138 -190 -139
l-90 -1 -3 138 -3 137 78 0 c43 0 94 -5 114 -10z"/>
<path d="M21668 5174 c-5 -4 -8 -182 -8 -396 l0 -388 90 0 90 0 0 103 0 104
113 6 c185 10 273 50 322 147 78 155 12 340 -144 402 -50 20 -78 22 -256 26
-110 2 -203 0 -207 -4z m363 -154 c80 -22 119 -112 85 -193 -22 -55 -76 -76
-188 -77 l-88 0 0 140 0 140 78 0 c42 0 93 -5 113 -10z"/>
<path d="M11300 5080 c-139 -26 -210 -95 -210 -205 0 -117 46 -158 229 -205
58 -15 120 -34 138 -43 52 -28 55 -75 4 -101 -69 -36 -173 -27 -274 23 l-58
28 -30 -60 c-34 -66 -35 -64 38 -97 67 -30 155 -43 261 -38 84 4 106 9 152 34
97 53 135 156 90 248 -29 60 -74 86 -216 124 -127 34 -149 44 -165 73 -8 16
-8 27 1 45 31 58 171 65 273 15 l38 -19 29 58 c34 68 33 69 -55 98 -71 24
-182 34 -245 22z"/>
<path d="M15396 5079 c-123 -20 -236 -108 -276 -215 -27 -75 -27 -193 1 -268
27 -74 96 -148 167 -182 81 -39 239 -46 339 -15 39 11 82 30 96 42 27 20 27
21 27 160 l0 139 -75 0 -75 0 0 -100 c0 -100 0 -101 -27 -112 -47 -21 -152
-15 -200 10 -68 36 -113 111 -113 192 0 180 201 279 354 175 20 -14 40 -25 44
-25 4 1 29 21 57 45 l50 44 -23 24 c-35 37 -123 76 -199 87 -76 11 -79 11
-147 -1z"/>
<path d="M18563 5079 c-229 -38 -355 -258 -277 -482 22 -65 101 -149 172 -184
53 -26 65 -28 182 -28 107 0 132 3 171 21 227 105 279 410 99 578 -60 56 -112
81 -200 95 -73 12 -74 12 -147 0z m143 -144 c142 -42 191 -229 92 -350 -43
-52 -82 -69 -158 -69 -95 0 -159 42 -194 126 -20 46 -21 138 -2 181 20 46 76
96 127 112 58 18 76 18 135 0z"/>
<path d="M5857 5073 c-4 -3 -7 -159 -7 -345 l0 -338 275 0 275 0 0 65 0 65
-190 0 -191 0 3 78 3 77 158 3 157 3 0 59 0 60 -160 0 -160 0 0 70 0 70 180 0
180 0 0 70 0 70 -258 0 c-142 0 -262 -3 -265 -7z"/>
<path d="M6520 4735 l0 -345 80 0 80 0 0 200 c0 110 3 200 8 200 4 -1 81 -91
172 -200 l165 -200 72 0 73 0 0 339 0 340 -85 3 -85 3 -2 -203 -3 -202 -169
205 -168 205 -69 0 -69 0 0 -345z"/>
<path d="M7257 5073 c-4 -3 -7 -35 -7 -70 l0 -63 110 0 110 0 0 -275 0 -275
85 0 85 0 0 275 0 275 110 0 110 0 0 70 0 70 -298 0 c-164 0 -302 -3 -305 -7z"/>
<path d="M7956 5072 c-3 -3 -6 -158 -6 -344 l0 -338 276 0 276 0 -4 63 -3 62
-193 3 -193 2 3 78 3 77 163 0 162 0 0 62 0 63 -162 2 -163 3 -3 34 c-2 19 -1
50 3 68 l6 33 179 0 180 0 0 70 0 71 -259 -2 c-143 -1 -262 -4 -265 -7z"/>
<path d="M8620 4735 l0 -345 80 0 79 0 3 93 3 92 75 2 75 3 60 -93 60 -92 88
-3 c48 -1 87 0 87 2 0 3 -32 52 -70 108 l-71 102 47 40 c26 22 55 58 65 80 36
79 17 207 -39 269 -28 31 -106 66 -173 77 -35 5 -133 10 -216 10 l-153 0 0
-345z m380 190 c54 -28 75 -98 45 -154 -22 -44 -70 -61 -168 -61 l-84 0 -7
105 c-4 58 -5 109 -1 115 10 16 181 12 215 -5z"/>
<path d="M9350 4736 l0 -346 80 0 80 0 0 95 0 95 108 0 c143 0 198 17 262 78
56 54 74 106 68 192 -5 76 -34 128 -92 167 -70 48 -101 54 -313 60 l-193 6 0
-347z m406 173 c29 -30 41 -90 25 -131 -19 -51 -64 -68 -173 -68 l-98 0 0 116
0 116 110 -4 c102 -3 111 -5 136 -29z"/>
<path d="M10070 4736 l0 -346 80 0 80 0 0 95 0 95 74 0 73 0 63 -95 63 -95 88
0 c49 0 89 2 89 5 0 3 -32 54 -72 112 -51 76 -67 108 -57 111 28 9 98 92 108
129 38 134 -22 256 -149 304 -46 18 -85 22 -247 26 l-193 6 0 -347z m374 192
c36 -16 57 -52 58 -97 1 -88 -48 -121 -179 -121 l-93 0 0 115 0 115 95 0 c52
0 105 -5 119 -12z"/>
<path d="M10794 5071 c-2 -2 -4 -157 -4 -343 l0 -338 85 0 85 0 -2 343 -3 342
-78 0 c-43 0 -81 -2 -83 -4z"/>
<path d="M12726 5072 c-3 -3 -6 -158 -6 -344 l0 -338 85 0 85 0 -2 343 -3 342
-77 1 c-42 1 -79 -1 -82 -4z"/>
<path d="M13049 5078 c-1 -2 -3 -157 -5 -345 l-3 -343 84 0 85 0 2 200 3 200
86 -102 c48 -57 123 -147 168 -200 l82 -98 70 0 69 0 0 338 c0 186 -2 341 -4
343 -2 2 -41 3 -86 1 l-81 -4 3 -199 c2 -109 1 -199 -2 -198 -3 0 -34 38 -70
83 -36 46 -110 138 -165 204 l-99 122 -68 0 c-38 0 -68 -1 -69 -2z"/>
<path d="M13780 5008 l0 -67 108 -3 107 -3 3 -272 2 -273 80 0 80 0 0 275 0
275 110 0 111 0 -3 68 -3 67 -297 0 -298 0 0 -67z"/>
<path d="M14474 5071 c-2 -2 -4 -157 -4 -343 l0 -338 270 0 270 0 0 65 0 65
-190 0 -191 0 3 78 3 77 160 2 c180 2 161 -8 157 83 l-2 40 -160 0 -160 0 0
70 0 70 185 0 186 0 -3 67 -3 68 -258 0 c-142 0 -260 -2 -263 -4z"/>
<path d="M15900 4733 l0 -343 80 0 80 0 0 95 0 95 74 0 74 0 63 -95 63 -95 89
0 c49 0 87 3 85 8 -2 4 -34 54 -72 111 -57 87 -66 105 -53 113 39 21 77 62 97
104 28 57 25 158 -6 219 -23 45 -96 99 -152 114 -21 6 -124 12 -229 14 l-193
4 0 -344z m380 189 c44 -21 62 -56 56 -105 -9 -77 -63 -107 -191 -107 l-85 0
0 115 0 115 93 0 c68 0 101 -5 127 -18z"/>
<path d="M17284 5071 c-2 -2 -4 -33 -4 -68 l0 -63 109 0 109 0 7 -142 c4 -79
6 -159 4 -178 -1 -19 -2 -79 -1 -132 l2 -98 80 0 80 0 0 275 0 275 110 0 110
0 0 65 0 65 -107 1 c-60 0 -195 1 -301 2 -107 1 -196 0 -198 -2z"/>
<path d="M18058 5073 l-78 -4 0 -339 0 -340 80 0 80 0 0 345 c0 190 -1 344 -2
343 -2 -1 -38 -4 -80 -5z"/>
<path d="M19137 5074 c-4 -4 -7 -160 -7 -346 l0 -338 85 0 85 0 0 203 1 202
20 -25 c11 -14 88 -105 171 -202 l150 -178 69 0 69 0 -2 343 -3 342 -80 0 -80
0 1 -202 c0 -112 -2 -203 -5 -203 -3 1 -20 20 -37 43 -17 23 -88 112 -159 197
-70 85 -128 156 -129 157 -5 6 -143 13 -149 7z"/>
<path d="M11770 4730 l0 -340 270 0 270 0 0 65 0 65 -190 0 -190 0 0 80 0 81
160 -3 160 -3 0 63 0 62 -160 0 -160 0 0 70 0 70 183 2 182 3 3 63 3 62 -266
0 -265 0 0 -340z"/>
<path d="M16833 5053 c-13 -36 -192 -441 -242 -547 -28 -59 -51 -110 -51 -112
0 -3 39 -3 87 -2 l86 3 25 68 25 67 167 0 167 0 27 -70 28 -70 84 0 c46 0 84
4 84 9 0 4 -26 64 -58 132 -32 68 -101 217 -152 332 l-93 207 -89 0 c-75 0
-90 -3 -95 -17z m110 -160 c2 -10 25 -66 50 -125 l46 -108 -109 0 -109 0 52
125 c28 69 54 125 58 125 4 0 9 -8 12 -17z"/>
<path d="M14545 3956 c-17 -17 -25 -36 -25 -61 0 -31 -3 -35 -25 -35 -18 0
-25 -5 -25 -20 0 -15 7 -20 25 -20 l25 0 0 -135 c0 -128 1 -135 20 -135 19 0
20 7 20 134 l0 135 47 3 c36 2 49 7 51 21 3 14 -4 17 -47 17 -49 0 -51 1 -51
28 0 43 31 66 75 58 32 -6 36 -5 33 11 -2 14 -14 19 -51 21 -39 3 -51 -1 -72
-22z"/>
<path d="M6500 3755 c0 -198 1 -205 20 -205 19 0 20 7 20 205 0 198 -1 205
-20 205 -19 0 -20 -7 -20 -205z"/>
<path d="M6690 3755 l0 -205 23 0 22 0 -3 160 c-2 88 1 160 5 160 4 -1 64 -72
133 -160 74 -93 132 -159 143 -159 15 -1 17 11 17 107 0 59 3 151 7 205 l6 97
-26 0 -27 0 -2 -161 -3 -161 -130 161 c-80 100 -136 161 -147 161 -17 0 -18
-14 -18 -205z"/>
<path d="M7127 3953 c-4 -3 -7 -12 -7 -20 0 -10 19 -13 75 -13 l75 0 0 -185 0
-185 25 0 25 0 0 185 0 185 70 0 c63 0 70 2 70 20 0 19 -7 20 -163 20 -90 0
-167 -3 -170 -7z"/>
<path d="M7550 3755 l0 -205 145 0 c138 0 145 1 145 20 0 19 -7 20 -125 20
l-125 0 0 75 0 75 110 0 c87 0 110 3 110 14 0 11 -26 16 -110 21 l-110 7 0 69
0 69 120 0 c113 0 120 1 120 20 0 19 -7 20 -140 20 l-140 0 0 -205z"/>
<path d="M8035 3941 c-83 -38 -120 -105 -113 -205 4 -70 30 -114 90 -158 48
-34 168 -39 226 -9 l42 21 0 86 c0 74 -2 85 -16 80 -9 -3 -18 -6 -20 -6 -2 0
-4 -31 -4 -68 0 -64 -2 -70 -25 -80 -45 -21 -138 -15 -175 11 -100 67 -97 225
6 285 51 30 139 27 183 -6 25 -18 31 -19 41 -7 16 19 6 31 -40 55 -51 26 -140
26 -195 1z"/>
<path d="M8422 3754 c3 -201 4 -209 23 -209 18 0 20 8 23 68 l3 67 68 0 69 0
43 -65 c32 -47 50 -64 67 -65 20 0 22 2 11 23 -7 12 -25 41 -40 64 -16 23 -29
44 -29 47 0 3 16 21 36 39 65 59 55 168 -19 212 -25 16 -56 20 -145 23 l-112
4 2 -208z m241 138 c32 -30 41 -65 27 -107 -15 -46 -59 -65 -149 -65 l-71 0 0
101 0 101 84 -3 c72 -3 88 -7 109 -27z"/>
<path d="M8950 3895 c-17 -37 -30 -68 -30 -70 0 -2 -27 -63 -60 -135 -33 -72
-60 -133 -60 -135 0 -3 10 -5 23 -5 17 0 27 12 46 55 l23 55 113 0 113 0 23
-55 c19 -44 29 -55 47 -55 30 0 31 -4 -73 223 -74 163 -86 182 -109 185 -24 3
-29 -3 -56 -63z m108 -97 c23 -53 42 -99 42 -102 0 -9 -178 -7 -183 2 -3 4 10
41 29 82 18 41 38 88 44 104 6 17 14 26 18 20 5 -5 27 -52 50 -106z"/>
<path d="M9220 3940 c0 -18 7 -20 70 -20 l70 0 0 -185 c0 -178 1 -185 20 -185
19 0 20 7 20 185 l0 185 75 0 c68 0 75 2 75 20 0 19 -7 20 -165 20 -158 0
-165 -1 -165 -20z"/>
<path d="M9640 3755 l0 -205 145 0 c138 0 145 1 145 20 0 19 -7 20 -119 20
l-119 0 -4 71 c-2 39 -1 73 1 75 2 2 51 4 108 4 85 0 103 3 103 15 0 12 -18
15 -105 15 l-105 0 0 75 0 75 115 0 c108 0 115 1 115 20 0 19 -7 20 -140 20
l-140 0 0 -205z"/>
<path d="M10048 3829 c-2 -74 -2 -167 0 -206 l4 -73 96 0 c118 0 161 11 209
53 46 40 63 82 63 151 0 91 -28 139 -105 179 -31 16 -64 21 -152 25 l-112 4
-3 -133z m238 72 c62 -28 89 -73 89 -148 0 -66 -16 -98 -69 -137 -22 -17 -46
-22 -122 -24 l-94 -4 0 166 0 166 78 0 c53 0 90 -6 118 -19z"/>
<path d="M10745 3942 c-45 -28 -57 -48 -59 -92 -1 -57 32 -87 125 -112 89 -23
117 -40 125 -74 5 -20 1 -32 -20 -52 -22 -23 -35 -27 -84 -27 -38 0 -71 7
-100 22 -35 17 -44 18 -49 8 -13 -37 50 -65 145 -65 55 0 76 5 103 23 59 40
62 125 6 162 -13 8 -58 25 -98 36 -41 11 -82 28 -91 36 -18 16 -24 59 -10 79
23 35 116 45 177 20 35 -15 45 -12 45 11 0 40 -160 58 -215 25z"/>
<path d="M11175 3941 c-73 -34 -115 -102 -115 -186 0 -121 85 -205 209 -205
71 0 106 12 145 48 84 79 87 234 5 309 -58 53 -169 69 -244 34z m193 -47 c15
-11 37 -40 50 -65 60 -115 -17 -239 -148 -239 -71 0 -116 27 -148 90 -18 35
-22 55 -18 90 8 56 44 111 87 134 45 22 139 17 177 -10z"/>
<path d="M11600 3755 l0 -205 136 0 c124 0 135 2 132 18 -3 15 -18 17 -116 20
l-112 3 0 184 c0 178 -1 185 -20 185 -19 0 -20 -7 -20 -205z"/>
<path d="M11940 3833 c0 -150 10 -192 55 -241 31 -34 37 -36 101 -40 88 -4
130 16 162 78 20 40 22 59 22 187 0 134 -1 143 -19 143 -18 0 -19 -10 -23
-142 -5 -191 -25 -228 -128 -228 -101 0 -120 37 -120 229 l0 141 -25 0 -25 0
0 -127z"/>
<path d="M12360 3940 c0 -17 8 -19 73 -22 l72 -3 3 -182 c2 -175 3 -183 22
-183 19 0 20 7 20 185 l0 185 70 0 c63 0 70 2 70 20 0 19 -7 20 -165 20 -157
0 -165 -1 -165 -20z"/>
<path d="M12780 3755 l0 -205 25 0 25 0 0 205 0 205 -25 0 -25 0 0 -205z"/>
<path d="M13053 3941 c-145 -66 -146 -298 -3 -371 27 -14 59 -20 105 -20 46 0
78 6 105 20 144 74 143 299 -3 369 -56 27 -146 28 -204 2z m188 -44 c53 -35
79 -82 79 -139 0 -101 -53 -159 -151 -166 -106 -8 -170 45 -177 149 -8 108 57
178 164 179 37 0 60 -6 85 -23z"/>
<path d="M13480 3755 c0 -197 1 -205 20 -205 18 0 20 8 22 161 l3 161 128
-161 c86 -107 135 -161 148 -161 18 0 19 10 19 205 0 198 -1 205 -20 205 -19
0 -20 -7 -20 -160 0 -88 -3 -160 -7 -160 -5 0 -64 72 -133 160 -74 93 -132
159 -142 159 -17 1 -18 -15 -18 -204z"/>
<path d="M14000 3942 c-39 -19 -60 -53 -60 -98 0 -48 33 -82 98 -99 111 -31
142 -45 148 -70 10 -39 1 -59 -36 -78 -43 -22 -116 -17 -165 12 -24 14 -36 16
-44 8 -17 -17 -13 -25 22 -44 76 -39 190 -33 239 14 22 21 28 36 28 70 0 62
-26 84 -133 112 -116 31 -147 72 -92 126 20 21 34 25 82 25 32 0 71 -7 87 -15
24 -13 31 -13 38 -3 13 21 10 25 -32 42 -53 21 -136 20 -180 -2z"/>
<path d="M15550 3755 l0 -205 124 0 c131 0 162 6 196 40 29 29 28 103 -3 134
-13 13 -29 25 -37 28 -9 3 -6 12 13 31 34 33 37 92 7 130 -28 36 -76 47 -197
47 l-103 0 0 -205z m235 155 c57 -22 52 -109 -7 -129 -17 -6 -64 -11 -104 -11
l-74 0 0 75 0 75 79 0 c44 0 91 -4 106 -10z m32 -196 c37 -28 42 -75 12 -103
-20 -19 -35 -21 -126 -21 l-103 0 0 76 0 76 95 -4 c76 -3 100 -8 122 -24z"/>
<path d="M16000 3813 c0 -167 10 -201 69 -240 48 -32 144 -32 192 0 59 39 69
73 69 240 0 139 -1 147 -19 147 -18 0 -20 -10 -23 -156 l-3 -156 -33 -29 c-27
-24 -41 -29 -87 -29 -103 0 -124 42 -125 253 0 110 -1 117 -20 117 -19 0 -20
-7 -20 -147z"/>
<path d="M16525 3948 c-65 -35 -89 -92 -62 -145 17 -31 56 -52 147 -77 94 -26
119 -63 76 -113 -22 -25 -31 -28 -83 -28 -37 0 -75 7 -102 19 -36 17 -44 18
-51 6 -21 -34 116 -78 191 -61 79 18 116 63 104 128 -8 44 -42 68 -125 88 -89
22 -120 45 -120 90 0 24 7 39 22 49 28 20 117 21 163 2 34 -15 45 -12 45 10 0
33 -158 58 -205 32z"/>
<path d="M16860 3755 c0 -198 1 -205 20 -205 19 0 20 7 20 205 0 198 -1 205
-20 205 -19 0 -20 -7 -20 -205z"/>
<path d="M17050 3755 l0 -205 25 0 25 0 0 161 0 162 128 -161 c75 -95 134
-161 145 -161 16 -1 17 15 17 204 0 197 -1 205 -20 205 -18 0 -20 -8 -22 -162
l-3 -163 -129 163 c-82 102 -136 162 -148 162 -17 0 -18 -14 -18 -205z"/>
<path d="M17540 3755 l0 -205 145 0 c138 0 145 1 145 20 0 19 -7 20 -120 20
l-120 0 0 75 0 75 105 0 c87 0 105 3 105 15 0 12 -18 15 -105 15 l-105 0 0 75
0 75 115 0 c108 0 115 1 115 20 0 19 -7 20 -140 20 l-140 0 0 -205z"/>
<path d="M17983 3945 c-67 -29 -89 -114 -42 -161 16 -16 52 -32 98 -44 109
-28 140 -53 127 -106 -14 -55 -121 -68 -208 -25 -38 19 -48 18 -48 -5 0 -37
116 -68 198 -53 66 13 102 50 102 106 0 58 -30 85 -118 109 -37 9 -79 23 -94
31 -48 24 -50 90 -2 111 36 17 120 15 156 -4 25 -13 32 -13 39 -3 11 18 2 29
-37 45 -42 18 -129 17 -171 -1z"/>
<path d="M18364 3943 c-54 -27 -79 -95 -54 -144 13 -23 71 -54 120 -63 62 -12
110 -38 116 -62 10 -38 0 -58 -36 -77 -43 -22 -116 -17 -165 12 -27 16 -36 17
-44 7 -8 -9 -6 -17 7 -28 34 -31 67 -41 132 -42 84 0 134 27 151 82 21 73 -11
109 -121 137 -35 9 -76 23 -91 30 -47 25 -46 90 1 115 27 15 115 12 155 -4 29
-13 34 -12 39 1 3 8 6 16 6 18 0 1 -18 10 -40 19 -50 20 -135 20 -176 -1z"/>
<path d="M18925 3945 c-45 -23 -65 -52 -65 -97 0 -70 16 -82 162 -123 73 -20
100 -53 77 -94 -8 -14 -26 -32 -39 -39 -33 -17 -113 -8 -157 18 -19 11 -39 18
-44 15 -20 -13 -7 -35 29 -53 123 -62 262 -14 262 89 0 56 -30 81 -135 108
-114 31 -144 72 -90 126 20 21 34 25 80 25 32 0 69 -7 87 -16 25 -13 32 -14
39 -2 14 21 11 25 -31 42 -51 20 -136 21 -175 1z"/>
<path d="M19262 3802 c3 -175 10 -195 71 -232 44 -27 140 -27 185 0 63 39 72
67 72 238 0 145 -1 152 -20 152 -19 0 -20 -7 -20 -146 0 -87 -4 -154 -11 -167
-21 -41 -51 -57 -107 -57 -107 0 -125 30 -130 228 -4 133 -5 142 -24 142 -19
0 -20 -6 -16 -158z"/>
<path d="M19832 3947 c-45 -17 -99 -71 -113 -114 -6 -19 -9 -63 -7 -98 4 -69
30 -114 90 -157 48 -33 159 -38 216 -9 49 25 56 35 38 50 -11 9 -22 7 -48 -9
-47 -29 -134 -28 -179 3 -39 26 -79 97 -79 142 0 41 38 114 72 139 42 30 127
34 179 7 36 -19 44 -20 56 -8 13 12 10 17 -24 38 -45 28 -148 36 -201 16z"/>
<path d="M20240 3933 c-44 -23 -60 -39 -83 -83 -25 -48 -28 -63 -24 -114 7
-75 44 -130 109 -164 60 -31 149 -32 207 -3 48 25 55 35 37 50 -11 9 -23 6
-52 -11 -84 -49 -193 -18 -234 68 -39 80 -18 165 54 218 41 31 155 30 189 -2
23 -22 24 -22 41 -3 16 18 15 20 -21 42 -27 17 -57 25 -103 27 -56 3 -72 0
-120 -25z"/>
<path d="M20610 3755 l0 -205 145 0 c138 0 145 1 145 20 0 19 -7 20 -125 20
l-125 0 0 75 0 75 110 0 c90 0 110 3 110 15 0 11 -21 15 -107 17 l-108 3 -3
73 -3 72 121 0 c113 0 120 1 120 20 0 19 -7 20 -140 20 l-140 0 0 -205z"/>
<path d="M21055 3949 c-51 -30 -65 -51 -65 -101 0 -71 24 -88 178 -128 80 -21
95 -92 26 -125 -44 -21 -108 -15 -167 14 -34 17 -39 17 -44 4 -9 -23 29 -50
89 -62 111 -24 208 24 208 104 0 60 -34 88 -143 116 -38 10 -77 25 -88 35 -27
24 -25 78 3 98 29 21 129 21 167 1 25 -12 31 -12 41 0 9 11 6 17 -16 32 -34
22 -159 30 -189 12z"/>
<path d="M21434 3946 c-43 -19 -64 -53 -64 -101 0 -62 39 -93 142 -114 98 -21
136 -74 87 -120 -42 -38 -115 -39 -190 -1 -37 19 -49 18 -49 -6 0 -39 120 -70
200 -53 133 29 133 175 -1 209 -101 25 -124 36 -138 61 -19 34 -8 73 24 87 36
17 121 15 156 -3 27 -14 30 -14 36 0 7 20 -2 29 -46 44 -45 15 -119 13 -157
-3z"/>
<path d="M14784 3846 c-84 -38 -115 -158 -61 -240 36 -55 152 -74 215 -36 91
56 97 200 10 263 -34 26 -122 33 -164 13z m139 -46 c74 -59 48 -195 -42 -213
-38 -8 -93 8 -116 33 -23 25 -31 101 -15 140 7 17 25 37 39 45 39 21 104 19
134 -5z"/>
<path d="M15120 3705 c0 -148 1 -155 20 -155 19 0 20 7 20 95 0 126 25 175 89
175 14 0 21 6 21 20 0 13 -7 20 -20 20 -26 0 -80 -27 -80 -40 0 -6 -4 -10 -10
-10 -5 0 -10 11 -10 25 0 16 -6 25 -15 25 -13 0 -15 -24 -15 -155z"/>
</g>
</svg>
